#!OML:ASF H:\Not Pregnant\Project 1\Capture day 1\Session 1\non-pregnant.ASF
:FULLY-SPECIFIED
:DEGREES
548
root -5.22847 16.034 26.6695 -169.322 -0.964555 -177.902
lowerback -0.601478 0.589846 3.3097
upperback -7.02705 0.404811 0.178413
thorax -6.95211 -0.20953 -1.65996
lowerneck 18.8728 -6.83639 -32.4594
upperneck -7.71018 -18.8134 41.0571
head 2.48384 -12.5481 21.2584
rclavicle 1.35577e-015 -7.15625e-015
rhumerus -42.7294 -15.2468 -70.5811
rradius 25.7464
rwrist 24.18
rhand -7.78872 -2.15222
rfingers 7.12502
rthumb 18.1121 -31.3289
lclavicle 1.35577e-015 -7.15625e-015
lhumerus -44.2864 -2.08422 87.0691
lradius 32.6772
lwrist 34.9758
lhand -14.559 -9.82824
lfingers 7.12502
lthumb 11.59 19.8313
rfemur -33.8098 0.655645 26.8712
rtibia 32.6857
rfoot -8.83306 12.3786
rtoes -8.02452
lfemur 0.818261 -1.55279 -18.8072
ltibia 30.0517
lfoot 5.16807 -21.6561
ltoes -13.8085
549
root -5.23803 16.0302 26.802 -169.246 -1.24783 -178.141
lowerback -0.553414 0.491667 3.10448
upperback -7.01889 0.270583 0.140185
thorax -6.97828 -0.263036 -1.57835
lowerneck 18.8253 -6.87438 -32.4282
upperneck -7.74005 -18.8513 41.0906
head 2.50338 -12.5681 21.2541
rclavicle 2.00648e-015 -4.99446e-015
rhumerus -42.537 -15.373 -70.5919
rradius 25.9499
rwrist 23.8718
rhand -8.10847 -2.29304
rfingers 7.12502
rthumb 17.8045 -31.498
lclavicle 2.00648e-015 -4.99446e-015
lhumerus -43.9517 -2.34026 87.1931
lradius 33.027
lwrist 35.2881
lhand -14.8362 -10.0536
lfingers 7.12502
lthumb 11.3227 19.6207
rfemur -34.4464 0.745677 26.4782
rtibia 32.7139
rfoot -8.28262 12.0724
rtoes -8.35412
lfemur 0.881418 -1.81458 -19.1022
ltibia 29.3412
lfoot 3.26677 -21.6199
ltoes -15.3291
550
root -5.24797 16.0265 26.9371 -169.189 -1.51784 -178.391
lowerback -0.470803 0.397796 2.89355
upperback -6.9977 0.145172 0.098811
thorax -7.00937 -0.310695 -1.49728
lowerneck 18.7746 -6.91505 -32.4031
upperneck -7.77115 -18.8918 41.1258
head 2.52555 -12.5889 21.2508
rclavicle 3.78467e-015 5.32991e-015
rhumerus -42.3292 -15.4765 -70.6357
rradius 26.1772
rwrist 23.503
rhand -8.41445 -2.44763
rfingers 7.12502
rthumb 17.51 -31.6791
lclavicle 3.78467e-015 5.32991e-015
lhumerus -43.5958 -2.63352 87.336
lradius 33.3898
lwrist 35.5878
lhand -15.1059 -10.2516
lfingers 7.12502
lthumb 11.0626 19.4368
rfemur -35.0463 0.829143 26.0653
rtibia 32.7033
rfoot -7.7041 11.7841
rtoes -8.69372
lfemur 0.905599 -2.10616 -19.4273
ltibia 28.677
lfoot 1.54367 -21.4827
ltoes -16.6245
551
root -5.25819 16.0234 27.0743 -169.156 -1.77508 -178.652
lowerback -0.349135 0.30843 2.67467
upperback -6.96289 0.0287036 0.0524129
thorax -7.04744 -0.352334 -1.41736
lowerneck 18.7286 -6.96077 -32.3785
upperneck -7.82015 -18.9346 41.164
head 2.54403 -12.6107 21.2489
rclavicle 1.2195e-015 9.63484e-015
rhumerus -42.0996 -15.5597 -70.7124
rradius 26.4104
rwrist 23.0848
rhand -8.70867 -2.59893
rfingers 7.12502
rthumb 17.2269 -31.8554
lclavicle 1.2195e-015 9.63484e-015
lhumerus -43.2272 -2.96365 87.4956
lradius 33.771
lwrist 35.8855
lhand -15.362 -10.4388
lfingers 7.12502
lthumb 10.8156 19.2627
rfemur -35.6019 0.902942 25.6321
rtibia 32.6517
rfoot -7.09987 11.5174
rtoes -9.03767
lfemur 0.908215 -2.44082 -19.7788
ltibia 28.0456
lfoot -0.0178233 -21.2719
ltoes -17.7037
552
root -5.26883 16.0208 27.2131 -169.145 -2.01587 -178.927
lowerback -0.184574 0.224075 2.44562
upperback -6.92372 -0.0795011 0.0029811
thorax -7.10476 -0.388877 -1.33502
lowerneck 18.6885 -7.00579 -32.3634
upperneck -7.86918 -18.9785 41.2005
head 2.56281 -12.6326 21.2483
rclavicle -4.05012e-015 -1.88341e-015
rhumerus -41.8623 -15.6045 -70.8186
rradius 26.6508
rwrist 22.6261
rhand -8.98073 -2.76018
rfingers 7.12502
rthumb 16.965 -32.0393
lclavicle -4.05012e-015 -1.88341e-015
lhumerus -42.8574 -3.32349 87.6706
lradius 34.163
lwrist 36.1827
lhand -15.5962 -10.6093
lfingers 7.12502
lthumb 10.5897 19.1039
rfemur -36.1132 0.960316 25.1801
rtibia 32.5613
rfoot -6.47277 11.2851
rtoes -9.40367
lfemur 0.896439 -2.8169 -20.1534
ltibia 27.4388
lfoot -1.41551 -21.0091
ltoes -18.5785
553
root -5.27988 16.0182 27.3533 -169.156 -2.24313 -179.219
lowerback 0.00510539 0.147452 2.21078
upperback -6.86844 -0.176036 -0.0576816
thorax -7.15841 -0.418335 -1.26157
lowerneck 18.63 -7.0692 -32.3429
upperneck -7.91399 -19.0395 41.2287
head 2.59178 -12.6597 21.2331
rclavicle -2.94683e-016 -3.27373e-015
rhumerus -41.602 -15.6358 -70.957
rradius 26.8953
rwrist 22.1588
rhand -9.22226 -2.91388
rfingers 7.12502
rthumb 16.7325 -32.2128
lclavicle -2.94683e-016 -3.27373e-015
lhumerus -42.4683 -3.72459 87.8532
lradius 34.5618
lwrist 36.4835
lhand -15.7993 -10.7917
lfingers 7.12502
lthumb 10.3937 18.9315
rfemur -36.5856 1.00227 24.7057
rtibia 32.4393
rfoot -5.82675 11.0845
rtoes -9.76276
lfemur 0.880421 -3.23002 -20.5476
ltibia 26.8438
lfoot -2.68117 -20.731
ltoes -19.3036
554
root -5.29127 16.0155 27.4943 -169.182 -2.45581 -179.53
lowerback 0.224221 0.0768983 1.95835
upperback -6.81335 -0.265545 -0.124293
thorax -7.22863 -0.443436 -1.18436
lowerneck 18.587 -7.13529 -32.3239
upperneck -7.96002 -19.1038 41.2443
head 2.61711 -12.6869 21.2112
rclavicle -7.28359e-016 2.2239e-015
rhumerus -41.3437 -15.6255 -71.1208
rradius 27.1473
rwrist 21.6954
rhand -9.43034 -3.05281
rfingers 7.12502
rthumb 16.5322 -32.3685
lclavicle -7.28359e-016 2.2239e-015
lhumerus -42.087 -4.14212 88.0368
lradius 34.9579
lwrist 36.7539
lhand -15.9438 -10.9867
lfingers 7.12502
lthumb 10.2544 18.7433
rfemur -37.0281 1.02489 24.2079
rtibia 32.2921
rfoot -5.16357 10.9219
rtoes -10.1076
lfemur 0.862897 -3.65447 -20.9555
ltibia 26.2439
lfoot -3.80762 -20.4879
ltoes -19.8116
555
root -5.3031 16.0127 27.6357 -169.218 -2.64782 -179.862
lowerback 0.447752 0.0121195 1.68706
upperback -6.75756 -0.350003 -0.195635
thorax -7.30002 -0.465139 -1.10139
lowerneck 18.5602 -7.19333 -32.3176
upperneck -7.99559 -19.1644 41.2533
head 2.64091 -12.7122 21.1915
rclavicle -4.33521e-015 1.2424e-015
rhumerus -41.0856 -15.5626 -71.3099
rradius 27.4022
rwrist 21.2504
rhand -9.60037 -3.168
rfingers 7.12502
rthumb 16.3685 -32.4973
lclavicle -4.33521e-015 1.2424e-015
lhumerus -41.7169 -4.56231 88.2164
lradius 35.3621
lwrist 37.0032
lhand -16.0466 -11.1501
lfingers 7.12502
lthumb 10.1552 18.5848
rfemur -37.4479 1.02982 23.6863
rtibia 32.122
rfoot -4.48297 10.8028
rtoes -10.4014
lfemur 0.851477 -4.05465 -21.3703
ltibia 25.6165
lfoot -4.81123 -20.3215
ltoes -20.1694
556
root -5.31525 16.0101 27.7773 -169.26 -2.82132 -180.21
lowerback 0.677452 -0.0465551 1.39853
upperback -6.70324 -0.429268 -0.270698
thorax -7.37598 -0.483585 -1.0125
lowerneck 18.5424 -7.24688 -32.3199
upperneck -8.01685 -19.2238 41.2529
head 2.66563 -12.7358 21.1695
rclavicle -7.94673e-015 -2.80783e-015
rhumerus -40.8261 -15.4576 -71.5172
rradius 27.6528
rwrist 20.845
rhand -9.72546 -3.26036
rfingers 7.12502
rthumb 16.248 -32.5995
lclavicle -7.94673e-015 -2.80783e-015
lhumerus -41.3617 -4.99139 88.3954
lradius 35.772
lwrist 37.2408
lhand -16.114 -11.2927
lfingers 7.12502
lthumb 10.0902 18.4454
rfemur -37.8439 1.01586 23.1469
rtibia 31.9239
rfoot -3.78611 10.7293
rtoes -10.6163
lfemur 0.855575 -4.39959 -21.7783
ltibia 24.9423
lfoot -5.65771 -20.2569
ltoes -20.2883
557
root -5.3278 16.0082 27.9183 -169.303 -2.97161 -180.572
lowerback 0.896238 -0.0980953 1.09507
upperback -6.64825 -0.502526 -0.350446
thorax -7.4443 -0.498549 -0.920234
lowerneck 18.5435 -7.28864 -32.3273
upperneck -8.03636 -19.273 41.2523
head 2.68337 -12.7559 21.1546
rclavicle -4.17448e-015 4.47266e-016
rhumerus -40.5596 -15.31 -71.7464
rradius 27.8977
rwrist 20.4832
rhand -9.8043 -3.32223
rfingers 7.12502
rthumb 16.1721 -32.6676
lclavicle -4.17448e-015 4.47266e-016
lhumerus -41.0177 -5.42613 88.571
lradius 36.1879
lwrist 37.4747
lhand -16.1528 -11.4239
lfingers 7.12502
lthumb 10.0527 18.316
rfemur -38.2173 0.982086 22.5934
rtibia 31.6875
rfoot -3.07187 10.7112
rtoes -10.7337
lfemur 0.87753 -4.65924 -22.1724
ltibia 24.2058
lfoot -6.33343 -20.3221
ltoes -20.1153
558
root -5.34047 16.0072 28.0586 -169.341 -3.09804 -180.942
lowerback 1.10056 -0.144361 0.774447
upperback -6.60176 -0.573184 -0.427633
thorax -7.51282 -0.511947 -0.815477
lowerneck 18.5674 -7.31236 -32.3453
upperneck -8.03947 -19.3085 41.2453
head 2.69519 -12.7703 21.146
rclavicle -8.06786e-015 -4.47266e-015
rhumerus -40.2979 -15.1041 -71.9921
rradius 28.1388
rwrist 20.1673
rhand -9.83266 -3.35865
rfingers 7.12502
rthumb 16.1448 -32.7062
lclavicle -8.06786e-015 -4.47266e-015
lhumerus -40.6994 -5.85471 88.7455
lradius 36.6124
lwrist 37.7046
lhand -16.1794 -11.5293
lfingers 7.12502
lthumb 10.027 18.2118
rfemur -38.569 0.929637 22.0357
rtibia 31.4025
rfoot -2.33873 10.7578
rtoes -10.7309
lfemur 0.918888 -4.8155 -22.5419
ltibia 23.3978
lfoot -6.86393 -20.5309
ltoes -19.7147
